
      <svg data-logo="logo" xmlns="http://www.w3.org/2000/svg" viewBox="0 0 238 42">
        <g id="logogram" transform="translate(0, 1) rotate(0) "><path d="M0 33L4.60606 25H12.2448C17.2569 25 21.4947 28.7103 22.1571 33.6784L23 40H13L11.5585 36.6365C10.613 34.4304 8.44379 33 6.04362 33H0Z" fill="#0047C1"/><path d="M46 33L41.3939 25H33.7552C28.7431 25 24.5053 28.7103 23.8429 33.6784L23 40H33L34.4415 36.6365C35.387 34.4304 37.5562 33 39.9564 33H46Z" fill="#0047C1"/><path d="M4.60606 25L18.9999 0H23L22.6032 9.52405C22.2608 17.7406 15.7455 24.3596 7.53537 24.8316L4.60606 25Z" fill="#0047C1"/><path d="M41.3939 25L27.0001 0H23L23.3968 9.52405C23.7392 17.7406 30.2545 24.3596 38.4646 24.8316L41.3939 25Z" fill="#0047C1"/></g>
        <g id="logotype" transform="translate(52, 7.5)"><path fill="#323f4e" d="M12.60 27L6.84 27L15.54 1.54L22.37 1.54L31.29 27L25.50 27L21.42 14.71Q20.68 12.34 19.92 9.51Q19.16 6.68 18.32 3.33L18.32 3.33L19.45 3.33Q18.65 6.70 17.94 9.54Q17.23 12.39 16.53 14.71L16.53 14.71L12.60 27ZM25.86 21.09L12.27 21.09L12.27 17.00L25.86 17.00L25.86 21.09ZM37.17 27L32.04 27L32.04 7.89L37.17 7.89L37.17 27ZM34.61 5.40L34.61 5.40Q33.44 5.40 32.62 4.63Q31.80 3.86 31.80 2.77L31.80 2.77Q31.80 1.67 32.62 0.90Q33.44 0.13 34.61 0.13L34.61 0.13Q35.77 0.13 36.60 0.90Q37.43 1.66 37.43 2.77L37.43 2.77Q37.43 3.86 36.60 4.63Q35.77 5.40 34.61 5.40ZM45.39 1.54L50.60 1.54L50.60 27L45.39 27L45.39 1.54ZM57.94 15.94L57.94 15.94L57.94 27L52.82 27L52.82 7.89L57.65 7.89L57.74 12.66L57.43 12.66Q58.18 10.27 59.71 8.96Q61.24 7.65 63.67 7.65L63.67 7.65Q65.65 7.65 67.12 8.52Q68.59 9.38 69.41 11.00Q70.23 12.61 70.23 14.85L70.23 14.85L70.23 27L65.11 27L65.11 15.74Q65.11 13.96 64.19 12.95Q63.28 11.94 61.65 11.94L61.65 11.94Q60.58 11.94 59.73 12.41Q58.88 12.88 58.41 13.77Q57.94 14.66 57.94 15.94ZM70.49 7.89L81.82 7.89L81.82 11.81L70.49 11.81L70.49 7.89ZM73.12 21.86L73.12 3.35L78.25 3.35L78.25 21.41Q78.25 22.32 78.65 22.75Q79.05 23.19 79.99 23.19L79.99 23.19Q80.28 23.19 80.81 23.11Q81.34 23.04 81.61 22.97L81.61 22.97L82.35 26.81Q81.49 27.07 80.65 27.17Q79.80 27.27 79.03 27.27L79.03 27.27Q76.16 27.27 74.64 25.87Q73.12 24.47 73.12 21.86L73.12 21.86ZM91.51 27.38L91.51 27.38Q88.58 27.38 86.46 26.18Q84.34 24.98 83.21 22.78Q82.07 20.57 82.07 17.55L82.07 17.55Q82.07 14.59 83.20 12.37Q84.33 10.15 86.40 8.90Q88.46 7.65 91.25 7.65L91.25 7.65Q93.13 7.65 94.75 8.25Q96.38 8.85 97.61 10.06Q98.84 11.26 99.53 13.07Q100.22 14.88 100.22 17.34L100.22 17.34L100.22 18.78L84.17 18.78L84.17 15.57L97.71 15.57L95.32 16.42Q95.32 14.93 94.86 13.83Q94.41 12.73 93.51 12.12Q92.62 11.52 91.28 11.52L91.28 11.52Q89.97 11.52 89.04 12.13Q88.10 12.75 87.63 13.80Q87.15 14.85 87.15 16.20L87.15 16.20L87.15 18.47Q87.15 20.13 87.70 21.26Q88.26 22.39 89.26 22.95Q90.26 23.51 91.59 23.51L91.59 23.51Q92.50 23.51 93.23 23.26Q93.97 23.00 94.49 22.50Q95.01 21.99 95.28 21.26L95.28 21.26L99.93 22.13Q99.47 23.70 98.32 24.89Q97.18 26.08 95.46 26.73Q93.74 27.38 91.51 27.38ZM106.58 27L101.45 27L101.45 7.89L106.41 7.89L106.41 11.23L106.61 11.23Q107.14 9.45 108.38 8.54Q109.62 7.64 111.22 7.64L111.22 7.64Q111.62 7.64 112.07 7.68Q112.52 7.72 112.88 7.81L112.88 7.81L112.88 12.39Q112.54 12.27 111.89 12.20Q111.24 12.13 110.66 12.13L110.66 12.13Q109.50 12.13 108.56 12.64Q107.62 13.14 107.10 14.04Q106.58 14.93 106.58 16.13L106.58 16.13L106.58 27ZM124.64 27L118.81 27L111.77 7.89L117.22 7.89L120.43 17.81Q121.02 19.67 121.45 21.57Q121.89 23.46 122.35 25.50L122.35 25.50L121.25 25.50Q121.70 23.46 122.13 21.57Q122.55 19.67 123.13 17.81L123.13 17.81L126.31 7.89L131.70 7.89L124.64 27ZM137.27 27L132.14 27L132.14 7.89L137.27 7.89L137.27 27ZM134.70 5.40L134.70 5.40Q133.54 5.40 132.72 4.63Q131.90 3.86 131.90 2.77L131.90 2.77Q131.90 1.67 132.72 0.90Q133.54 0.13 134.70 0.13L134.70 0.13Q135.86 0.13 136.69 0.90Q137.52 1.66 137.52 2.77L137.52 2.77Q137.52 3.86 136.69 4.63Q135.86 5.40 134.70 5.40ZM147.98 27.38L147.98 27.38Q145.06 27.38 142.94 26.18Q140.82 24.98 139.68 22.78Q138.55 20.57 138.55 17.55L138.55 17.55Q138.55 14.59 139.67 12.37Q140.80 10.15 142.87 8.90Q144.94 7.65 147.72 7.65L147.72 7.65Q149.60 7.65 151.23 8.25Q152.85 8.85 154.08 10.06Q155.31 11.26 156.00 13.07Q156.69 14.88 156.69 17.34L156.69 17.34L156.69 18.78L140.65 18.78L140.65 15.57L154.18 15.57L151.79 16.42Q151.79 14.93 151.34 13.83Q150.88 12.73 149.99 12.12Q149.09 11.52 147.76 11.52L147.76 11.52Q146.44 11.52 145.51 12.13Q144.58 12.75 144.10 13.80Q143.62 14.85 143.62 16.20L143.62 16.20L143.62 18.47Q143.62 20.13 144.18 21.26Q144.73 22.39 145.73 22.95Q146.73 23.51 148.06 23.51L148.06 23.51Q148.97 23.51 149.71 23.26Q150.44 23.00 150.96 22.50Q151.48 21.99 151.76 21.26L151.76 21.26L156.40 22.13Q155.94 23.70 154.80 24.89Q153.65 26.08 151.94 26.73Q150.22 27.38 147.98 27.38ZM167.12 27L161.91 27L156.27 7.89L161.65 7.89L163.31 14.95Q163.73 16.85 164.23 19.08Q164.72 21.31 165.14 24.01L165.14 24.01L164.55 24.01Q165.00 21.38 165.53 19.14Q166.06 16.90 166.52 14.95L166.52 14.95L168.26 7.89L172.98 7.89L174.67 14.95Q175.12 16.88 175.65 19.11Q176.18 21.34 176.64 24.01L176.64 24.01L176.06 24.01Q176.47 21.36 176.94 19.13Q177.41 16.90 177.85 14.95L177.85 14.95L179.51 7.89L184.96 7.89L179.29 27L174.07 27L171.95 19.63Q171.65 18.52 171.34 17.18Q171.03 15.84 170.74 14.45Q170.45 13.05 170.14 11.84L170.14 11.84L171.05 11.84Q170.76 13.05 170.46 14.45Q170.16 15.84 169.85 17.19Q169.54 18.54 169.24 19.63L169.24 19.63L167.12 27Z"/></g>
        
      </svg>
    